<?xml version="1.0" encoding="UTF-8" standalone="no"?>
<svg
   xmlns:dc="http://purl.org/dc/elements/1.1/"
   xmlns:cc="http://creativecommons.org/ns#"
   xmlns:rdf="http://www.w3.org/1999/02/22-rdf-syntax-ns#"
   xmlns:svg="http://www.w3.org/2000/svg"
   xmlns="http://www.w3.org/2000/svg"
   xmlns:xlink="http://www.w3.org/1999/xlink"
   xmlns:sodipodi="http://sodipodi.sourceforge.net/DTD/sodipodi-0.dtd"
   xmlns:inkscape="http://www.inkscape.org/namespaces/inkscape"
   version="1.1"
   id="svg11376"
   viewBox="0 0 223.22833 311.81099"
   height="3.4645665in"
   width="2.4803147in"
   inkscape:version="0.91 r13725"
   sodipodi:docname="Clubs3.svg">
  <sodipodi:namedview
     pagecolor="#ffffff"
     bordercolor="#666666"
     borderopacity="1"
     objecttolerance="10"
     gridtolerance="10"
     guidetolerance="10"
     inkscape:pageopacity="0"
     inkscape:pageshadow="2"
     inkscape:window-width="1440"
     inkscape:window-height="798"
     id="namedview783"
     showgrid="false"
     fit-margin-top="0"
     fit-margin-left="0"
     fit-margin-right="0"
     fit-margin-bottom="0"
     inkscape:zoom="0.75686879"
     inkscape:cx="111.61416"
     inkscape:cy="155.90551"
     inkscape:window-x="0"
     inkscape:window-y="1"
     inkscape:window-maximized="1"
     inkscape:current-layer="layer1" />
  <defs
     id="defs11378">
    <linearGradient
       id="linearGradient3006">
      <stop
         id="stop3008"
         offset="0"
         style="stop-color:#ffffff;stop-opacity:1;" />
      <stop
         style="stop-color:#7f7f7f;stop-opacity:1;"
         offset="0.37675071"
         id="stop3014" />
      <stop
         id="stop3016"
         offset="0.80194807"
         style="stop-color:#ffffff;stop-opacity:1;" />
      <stop
         id="stop3010"
         offset="1"
         style="stop-color:#cccccc;stop-opacity:1" />
    </linearGradient>
    <linearGradient
       id="linearGradient3804">
      <stop
         id="stop3806"
         offset="0"
         style="stop-color:#000000;stop-opacity:1;" />
      <stop
         style="stop-color:#333333;stop-opacity:1"
         offset="0.5"
         id="stop3812" />
      <stop
         id="stop3808"
         offset="1"
         style="stop-color:#000000;stop-opacity:1;" />
    </linearGradient>
    <linearGradient
       id="linearGradient3851">
      <stop
         id="stop3853"
         offset="0"
         style="stop-color:#808080;stop-opacity:1;" />
      <stop
         style="stop-color:#ffffff;stop-opacity:1;"
         offset="0.5"
         id="stop3859" />
      <stop
         id="stop3855"
         offset="1"
         style="stop-color:#808080;stop-opacity:1;" />
    </linearGradient>
    <radialGradient
       gradientUnits="userSpaceOnUse"
       gradientTransform="matrix(0.97241988,-0.00350785,0.00204639,0.40929875,4026.4071,-290.65137)"
       r="74.726646"
       fy="208.92761"
       fx="44.149761"
       cy="208.92761"
       cx="44.149761"
       id="radialGradient3939-7-7"
       xlink:href="#linearGradient3933-4-3" />
    <linearGradient
       id="linearGradient3933-4-3">
      <stop
         id="stop3935-0-7"
         offset="0"
         style="stop-color:#000000;stop-opacity:1;" />
      <stop
         id="stop3937-9-2"
         offset="1"
         style="stop-color:#000000;stop-opacity:0;" />
    </linearGradient>
    <linearGradient
       gradientTransform="translate(3914.848,-255.2825)"
       gradientUnits="userSpaceOnUse"
       y2="294.38422"
       x2="178.15625"
       y1="294.38422"
       x1="81.90625"
       id="linearGradient3012-2-7"
       xlink:href="#linearGradient3006" />
    <linearGradient
       gradientUnits="userSpaceOnUse"
       y2="394.69629"
       x2="156.7487"
       y1="394.69629"
       x1="65.223801"
       id="linearGradient3810-9-1"
       xlink:href="#linearGradient3804"
       gradientTransform="translate(3914.848,-376.2825)" />
    <radialGradient
       gradientUnits="userSpaceOnUse"
       gradientTransform="matrix(0.79138519,4.4166814e-8,0,0.48100739,3940.8627,-177.7307)"
       r="43.141743"
       fy="428.49252"
       fx="114.59315"
       cy="428.49252"
       cx="114.59315"
       id="radialGradient3030-7-1"
       xlink:href="#linearGradient3024-3-7" />
    <linearGradient
       id="linearGradient3024-3-7">
      <stop
         style="stop-color:#000000;stop-opacity:1"
         offset="0"
         id="stop3028-2-7" />
      <stop
         style="stop-color:#242424;stop-opacity:1;"
         offset="1"
         id="stop3026-2-7" />
    </linearGradient>
    <linearGradient
       y2="390.78296"
       x2="183.7796"
       y1="375.92633"
       x1="145.60164"
       gradientUnits="userSpaceOnUse"
       id="linearGradient3113-4-7"
       xlink:href="#linearGradient3933-4-3"
       gradientTransform="translate(3914.848,-376.2825)" />
    <linearGradient
       gradientUnits="userSpaceOnUse"
       y2="405.19611"
       x2="116.81388"
       y1="395.66125"
       x1="113.00574"
       id="linearGradient3107-7-9"
       xlink:href="#linearGradient3933-4-3"
       gradientTransform="translate(3914.848,-376.2825)" />
    <linearGradient
       y2="459.14062"
       x2="-128.625"
       y1="459.14062"
       x1="-158.78125"
       gradientTransform="matrix(0.43846429,7.9081918e-4,-6.5324466e-4,0.53080568,903.27012,-3758.3554)"
       gradientUnits="userSpaceOnUse"
       id="linearGradient3086-3-9"
       xlink:href="#linearGradient3804" />
    <linearGradient
       y2="463.51562"
       x2="-281.15625"
       y1="463.51562"
       x1="-311.3125"
       gradientTransform="matrix(0.43846429,7.9081918e-4,-6.5324466e-4,0.53080568,970.15112,-3759.4954)"
       gradientUnits="userSpaceOnUse"
       id="linearGradient3088-8-0"
       xlink:href="#linearGradient3851" />
    <radialGradient
       gradientUnits="userSpaceOnUse"
       gradientTransform="matrix(0.97241988,-0.00350785,0.00204639,0.40929875,4026.4074,-290.65146)"
       r="74.726646"
       fy="208.92761"
       fx="44.149761"
       cy="208.92761"
       cx="44.149761"
       id="radialGradient3939-7-6"
       xlink:href="#linearGradient3933-4-3" />
    <linearGradient
       y2="536.86133"
       x2="201.77882"
       y1="536.86133"
       x1="104.75369"
       gradientTransform="translate(3896.2872,-468.4428)"
       gradientUnits="userSpaceOnUse"
       id="linearGradient3004-8"
       xlink:href="#linearGradient2989-6-6" />
    <linearGradient
       id="linearGradient2989-6-6">
      <stop
         id="stop2991-1-5"
         offset="0"
         style="stop-color:#1f1f1f;stop-opacity:1" />
      <stop
         style="stop-color:#000000;stop-opacity:1;"
         offset="0.5"
         id="stop2997-8-0" />
      <stop
         id="stop2993-9-9"
         offset="1"
         style="stop-color:#444444;stop-opacity:1" />
    </linearGradient>
    <linearGradient
       gradientTransform="translate(3914.8482,-255.28248)"
       gradientUnits="userSpaceOnUse"
       y2="294.38422"
       x2="178.15625"
       y1="294.38422"
       x1="81.90625"
       id="linearGradient3012-2-0"
       xlink:href="#linearGradient3006" />
    <linearGradient
       gradientUnits="userSpaceOnUse"
       y2="394.69629"
       x2="156.7487"
       y1="394.69629"
       x1="65.223801"
       id="linearGradient3810-9-9"
       xlink:href="#linearGradient3804"
       gradientTransform="translate(3914.8482,-376.2825)" />
    <radialGradient
       gradientUnits="userSpaceOnUse"
       gradientTransform="matrix(0.79138519,4.4166814e-8,0,0.48100739,3940.8629,-177.73073)"
       r="43.141743"
       fy="428.49252"
       fx="114.59315"
       cy="428.49252"
       cx="114.59315"
       id="radialGradient3030-7-0"
       xlink:href="#linearGradient3024-3-7" />
    <linearGradient
       y2="390.78296"
       x2="183.7796"
       y1="375.92633"
       x1="145.60164"
       gradientUnits="userSpaceOnUse"
       id="linearGradient3113-4-8"
       xlink:href="#linearGradient3933-4-3"
       gradientTransform="translate(3914.8482,-376.2825)" />
    <linearGradient
       gradientUnits="userSpaceOnUse"
       y2="405.19611"
       x2="116.81388"
       y1="395.66125"
       x1="113.00574"
       id="linearGradient3107-7-3"
       xlink:href="#linearGradient3933-4-3"
       gradientTransform="translate(3914.8482,-376.2825)" />
    <linearGradient
       y2="459.14062"
       x2="-128.625"
       y1="459.14062"
       x1="-158.78125"
       gradientTransform="matrix(0.43846429,7.9081918e-4,-6.5324466e-4,0.53080568,903.2701,-3758.3555)"
       gradientUnits="userSpaceOnUse"
       id="linearGradient3086-3-7"
       xlink:href="#linearGradient3804" />
    <linearGradient
       y2="463.51562"
       x2="-281.15625"
       y1="463.51562"
       x1="-311.3125"
       gradientTransform="matrix(0.43846429,7.9081918e-4,-6.5324466e-4,0.53080568,970.15118,-3759.4955)"
       gradientUnits="userSpaceOnUse"
       id="linearGradient3088-8-1"
       xlink:href="#linearGradient3851" />
    <pattern
       patternTransform="matrix(-0.11059956,0.11059956,-0.11059956,-0.11059956,-70.743467,2137.2659)"
       id="pattern72508"
       xlink:href="#pattern13545-1" />
    <pattern
       xlink:href="#pattern13024-5"
       id="pattern13545-1"
       patternTransform="matrix(-0.11059956,0.11059956,-0.11059956,-0.11059956,-106.1174,687.64592)" />
    <pattern
       patternUnits="userSpaceOnUse"
       width="108.6184"
       height="110.74085"
       patternTransform="translate(-254.02376,74.426221)"
       id="pattern13024-5">
      <path
         transform="translate(1070.3552,-11.763587)"
         d="m -1016.046,25.720671 -10.7642,16.120541 7.1773,18.006272 -18.6578,-5.255841 -14.9071,12.390288 -0.767,-19.36883 -16.3904,-10.348653 18.1838,-6.714754 4.7773,-18.786107 12.0052,15.218884 z"
         id="path13016-2"
         style="fill:#131f67;fill-opacity:1;stroke:none" />
      <path
         style="fill:#131f67;fill-opacity:1;stroke:none"
         id="path13018-7"
         d="m -1016.046,25.720671 -10.7642,16.120541 7.1773,18.006272 -18.6578,-5.255841 -14.9071,12.390288 -0.767,-19.36883 -16.3904,-10.348653 18.1838,-6.714754 4.7773,-18.786107 12.0052,15.218884 z"
         transform="matrix(0.8660254,0.5,-0.5,0.8660254,946.33909,568.72784)" />
      <path
         d="m -1016.046,25.720671 -10.7642,16.120541 7.1773,18.006272 -18.6578,-5.255841 -14.9071,12.390288 -0.767,-19.36883 -16.3904,-10.348653 18.1838,-6.714754 4.7773,-18.786107 12.0052,15.218884 z"
         id="path13020-6"
         style="fill:#131f67;fill-opacity:1;stroke:none"
         transform="translate(1124.6644,-11.763587)" />
      <path
         style="fill:#131f67;fill-opacity:1;stroke:none"
         id="path13022-1"
         d="m -1016.046,25.720671 -10.7642,16.120541 7.1773,18.006272 -18.6578,-5.255841 -14.9071,12.390288 -0.767,-19.36883 -16.3904,-10.348653 18.1838,-6.714754 4.7773,-18.786107 12.0052,15.218884 z"
         transform="matrix(0.8660254,0.5,-0.5,0.8660254,1000.6483,568.72784)" />
    </pattern>
    <pattern
       patternTransform="matrix(0.10623121,-0.1062312,0.10623121,0.1062312,-199.21061,2428.6515)"
       id="pattern72564"
       xlink:href="#pattern15142-1" />
    <pattern
       xlink:href="#pattern13074-4-7"
       id="pattern15142-1"
       patternTransform="matrix(0.10623121,-0.1062312,0.10623121,0.1062312,-598.64084,979.03152)" />
    <pattern
       xlink:href="#pattern13064-2-4"
       id="pattern13074-4-7"
       patternTransform="matrix(0.10623121,-0.1062312,0.10623121,0.1062312,-605.82881,365.81179)" />
    <pattern
       xlink:href="#pattern8526-950-188-3-0"
       id="pattern13064-2-4"
       patternTransform="matrix(0.10623121,-0.1062312,0.10623121,0.1062312,-836.82881,38.811786)" />
    <pattern
       xlink:href="#pattern8519-687-26-2-9"
       id="pattern8526-950-188-3-0"
       patternTransform="matrix(0.10623121,-0.1062312,0.10623121,0.1062312,13.113538,22.901883)" />
    <pattern
       xlink:href="#pattern8507-266-27-2-4"
       id="pattern8519-687-26-2-9"
       patternTransform="matrix(0.10623121,-0.1062312,0.10623121,0.1062312,-23.656015,100.68363)" />
    <pattern
       xlink:href="#pattern8501-248-271-1-8"
       id="pattern8507-266-27-2-4"
       patternTransform="matrix(0.10623119,-0.10623119,0.10623119,0.10623119,194.54709,-74.729113)" />
    <pattern
       xlink:href="#pattern8475-545-163-6-8"
       id="pattern8501-248-271-1-8"
       patternTransform="matrix(0.0652057,-0.0652057,0.0652057,0.0652057,194.54709,-74.729113)" />
    <pattern
       xlink:href="#pattern8463-7-486-8-2"
       id="pattern8475-545-163-6-8"
       patternTransform="matrix(0.11006325,-0.11006325,0.11006325,0.11006325,-254.02376,74.426221)" />
    <pattern
       patternUnits="userSpaceOnUse"
       width="108.6184"
       height="110.74085"
       patternTransform="translate(-254.02376,74.426221)"
       id="pattern8463-7-486-8-2">
      <path
         transform="translate(1070.3552,-11.763587)"
         d="m -1016.046,25.720671 -10.7642,16.120541 7.1773,18.006272 -18.6578,-5.255841 -14.9071,12.390288 -0.767,-19.36883 -16.3904,-10.348653 18.1838,-6.714754 4.7773,-18.786107 12.0052,15.218884 z"
         id="path11396-5-4"
         style="fill:#d40000;fill-opacity:1;stroke:none" />
      <path
         style="fill:#d40000;fill-opacity:1;stroke:none"
         id="path11398-7-5"
         d="m -1016.046,25.720671 -10.7642,16.120541 7.1773,18.006272 -18.6578,-5.255841 -14.9071,12.390288 -0.767,-19.36883 -16.3904,-10.348653 18.1838,-6.714754 4.7773,-18.786107 12.0052,15.218884 z"
         transform="matrix(0.8660254,0.5,-0.5,0.8660254,946.33909,568.72784)" />
      <path
         d="m -1016.046,25.720671 -10.7642,16.120541 7.1773,18.006272 -18.6578,-5.255841 -14.9071,12.390288 -0.767,-19.36883 -16.3904,-10.348653 18.1838,-6.714754 4.7773,-18.786107 12.0052,15.218884 z"
         id="path11400-6-5"
         style="fill:#d40000;fill-opacity:1;stroke:none"
         transform="translate(1124.6644,-11.763587)" />
      <path
         style="fill:#d40000;fill-opacity:1;stroke:none"
         id="path11402-1-1"
         d="m -1016.046,25.720671 -10.7642,16.120541 7.1773,18.006272 -18.6578,-5.255841 -14.9071,12.390288 -0.767,-19.36883 -16.3904,-10.348653 18.1838,-6.714754 4.7773,-18.786107 12.0052,15.218884 z"
         transform="matrix(0.8660254,0.5,-0.5,0.8660254,1000.6483,568.72784)" />
    </pattern>
    <filter
       id="filter5450-1-8"
       style="color-interpolation-filters:sRGB">
      <feBlend
         mode="screen"
         in2="BackgroundImage"
         id="feBlend5452-1-8" />
    </filter>
    <filter
       id="filter5450-1-3-7-62-4"
       style="color-interpolation-filters:sRGB">
      <feBlend
         mode="screen"
         in2="BackgroundImage"
         id="feBlend5452-1-1-1-58-9" />
    </filter>
    <filter
       id="filter5450-2-5-2-12-86-5"
       style="color-interpolation-filters:sRGB">
      <feBlend
         mode="screen"
         in2="BackgroundImage"
         id="feBlend5452-4-2-3-7-6-8" />
    </filter>
  </defs>
  <metadata
     id="metadata11381">
    <rdf:RDF>
      <cc:Work
         rdf:about="">
        <dc:format>image/svg+xml</dc:format>
        <dc:type
           rdf:resource="http://purl.org/dc/dcmitype/StillImage" />
        <dc:title></dc:title>
      </cc:Work>
    </rdf:RDF>
  </metadata>
  <g
     transform="translate(-995.47246,1094.4207)"
     id="layer1">
    <g
       transform="translate(3.9868881,-5.5524942)"
       id="g5431">
      <g
         id="layer1-33-1-4-5-7"
         transform="matrix(0.99553774,0,0,0.99680134,732.71268,-1457.4607)">
        <rect
           y="370.27557"
           x="260.43304"
           height="311.81104"
           width="223.22835"
           id="rect6355-6-85-2-7-5"
           style="display:inline;fill:#ffffff;fill-opacity:1;stroke:#000000;stroke-width:1.0005666;stroke-miterlimit:4;stroke-dasharray:none;stroke-opacity:1"
           rx="10.677567"
           ry="10.664032" />
      </g>
      <path
         d="m 1103.0956,-1055.3647 c -9.7745,0.2123 -14.1574,11.2173 -6.9184,19.7633 1.0499,1.2465 1.1582,1.9619 -0.7646,0.7645 -4.8738,-3.2592 -14.2192,-1.1166 -14.6978,8.8473 -0.5911,12.2769 16.5629,15.8143 19.7837,2.7597 0.1701,-1.3774 1.2894,-1.346 1.0196,0.6091 -0.2937,5.3064 -1.9509,10.2661 -4.2287,15.1025 3.8391,0 8.1296,0 11.6202,0 -2.2777,-4.8364 -3.9349,-9.7961 -4.2286,-15.1025 -0.2699,-1.9551 0.8495,-1.9865 1.0195,-0.6091 3.2209,13.0546 20.3749,9.5172 19.7837,-2.7597 -0.4784,-9.9639 -9.8239,-12.1065 -14.6978,-8.8473 -1.9228,1.1974 -1.8145,0.482 -0.7645,-0.7645 7.239,-8.546 2.8561,-19.551 -6.9183,-19.7633 0,-10e-5 0,0 -0.01,0 z"
         id="path147-0-8-1-6-7-2-5-9-2"
         style="display:inline;opacity:1"
         inkscape:connector-curvature="0" />
      <path
         d="m 1103.0956,-809.73165 c -9.7745,-0.21226 -14.1574,-11.21727 -6.9184,-19.76329 1.0499,-1.24653 1.1582,-1.96187 -0.7646,-0.76452 -4.8738,3.25919 -14.2192,1.11662 -14.6978,-8.84728 -0.5911,-12.27695 16.5629,-15.81427 19.7837,-2.75967 0.1701,1.37736 1.2895,1.34593 1.0196,-0.60916 -0.2937,-5.30641 -1.9509,-10.26606 -4.2287,-15.10253 3.8391,0 8.1296,0 11.6202,0 -2.2776,4.83647 -3.9349,9.79612 -4.2286,15.10253 -0.2699,1.95509 0.8495,1.98652 1.0195,0.60916 3.2209,-13.0546 20.3749,-9.51728 19.7837,2.75967 -0.4784,9.9639 -9.8239,12.10647 -14.6978,8.84728 -1.9227,-1.19735 -1.8144,-0.48201 -0.7645,0.76452 7.239,8.54602 2.8561,19.55102 -6.9183,19.76329 0,6e-5 0,-5e-5 -0.01,0 z"
         id="path147-0-8-1-6-1-4-3-4-3"
         style="display:inline;opacity:1"
         inkscape:connector-curvature="0" />
      <path
         d="m 1103.0956,-956.4714 c -9.7745,0.21226 -14.1574,11.21727 -6.9184,19.76328 1.0499,1.24653 1.1582,1.96188 -0.7646,0.76453 -4.8738,-3.25919 -14.2192,-1.11663 -14.6978,8.84728 -0.5911,12.27694 16.5629,15.81426 19.7837,2.75966 0.1701,-1.37736 1.2894,-1.34593 1.0196,0.60917 -0.2937,5.30641 -1.9509,10.26606 -4.2287,15.10253 3.8391,0 8.1296,0 11.6202,0 -2.2777,-4.83647 -3.9349,-9.79612 -4.2286,-15.10253 -0.2699,-1.9551 0.8495,-1.98653 1.0195,-0.60917 3.2209,13.0546 20.3749,9.51728 19.7837,-2.75966 -0.4784,-9.96391 -9.8239,-12.10647 -14.6978,-8.84728 -1.9228,1.19735 -1.8144,0.482 -0.7645,-0.76453 7.239,-8.54601 2.8561,-19.55101 -6.9183,-19.76328 0,-6e-5 0,5e-5 -0.01,0 z"
         id="path147-0-8-1-6-1-1-0-4-8-8"
         style="display:inline;opacity:1"
         inkscape:connector-curvature="0" />
      <path
         d="m 1197.0776,-827.36914 c 3.9097,-0.0884 5.663,-4.67386 2.7674,-8.23469 -0.4201,-0.5194 -0.4634,-0.81746 0.3058,-0.31856 1.9495,1.358 5.6877,0.46526 5.8791,-3.68637 0.2365,-5.1154 -6.6252,-6.58928 -7.9135,-1.14986 -0.068,0.57391 -0.5158,0.56081 -0.4078,-0.25382 0.1175,-2.211 0.7803,-4.27752 1.6914,-6.29271 -1.5492,0 -3.0986,0 -4.6478,0 0.9111,2.01519 1.5739,4.08171 1.6914,6.29271 0.108,0.81463 -0.3398,0.82773 -0.4078,0.25382 -1.2883,-5.43942 -8.1499,-3.96554 -7.9135,1.14986 0.1914,4.15163 3.9296,5.04437 5.8791,3.68637 0.7692,-0.4989 0.7259,-0.20084 0.3059,0.31856 -2.8956,3.56083 -1.1424,8.14624 2.7673,8.23469 10e-4,2e-5 0,-2e-5 0,0 z"
         id="path147-6-9-8-7-0-5-5-1-4"
         style="display:inline;opacity:1"
         inkscape:connector-curvature="0" />
      <path
         d="m 1009.1226,-1038.5561 c -3.9098,0.088 -5.663,4.6739 -2.7674,8.2347 0.42,0.5194 0.4633,0.8175 -0.3058,0.3186 -1.9496,-1.358 -5.6877,-0.4653 -5.8792,3.6863 -0.23639,5.1154 6.6252,6.5893 7.9136,1.1499 0.068,-0.5739 0.5158,-0.5608 0.4077,0.2538 -0.1174,2.211 -0.7803,4.2775 -1.6914,6.2927 1.5493,0 3.0986,0 4.6479,0 -0.9111,-2.0152 -1.574,-4.0817 -1.6914,-6.2927 -0.108,-0.8146 0.3397,-0.8277 0.4077,-0.2538 1.2884,5.4394 8.15,3.9655 7.9136,-1.1499 -0.1915,-4.1516 -3.9296,-5.0443 -5.8792,-3.6863 -0.7691,0.4989 -0.7258,0.2008 -0.3058,-0.3186 2.8956,-3.5608 1.1424,-8.1462 -2.7673,-8.2347 -10e-4,0 0,0 0,0 z"
         id="path147-6-9-8-7-4-5-8-2-3"
         style="display:inline;opacity:1"
         inkscape:connector-curvature="0" />
      <path
         d="m 998.46109,-1048.8921 2.52921,-1.8626 c 2.1951,3.5789 4.65,5.9361 8.4054,5.5315 5.6343,-0.3876 7.969,-6.3015 6.7901,-10.7575 -1.1403,-3.9979 -5.8058,-5.9452 -9.5151,-3.8138 -0.8755,0.5051 -1.7202,0.9175 -1.8854,0.9175 -0.389,0 -1.2697,-1.7542 -1.1493,-2.2893 2.4894,-3.6402 8.5346,-10.0175 8.5346,-10.0175 l -9.4447,0 0,4.2707 -3.62478,0 0,-7.6629 18.45938,0 0,2.6 c 0,0 -4.9458,5.1359 -6.5802,7.9487 4.0254,0.1475 7.2701,2.7018 8.4349,6.7401 0.6796,2.1262 0.375,6.9894 -0.5146,9.0855 -1.486,3.4941 -5.5448,6.329 -9.2552,6.4921 -6.2296,0.419 -9.5344,-3.9508 -11.18431,-7.1825 l 0,0 z m 0,0"
         id="path17-9-7-6-4"
         style="opacity:1"
         inkscape:connector-curvature="0" />
      <path
         d="m 1207.7369,-817.03308 -2.5292,1.86252 c -2.1951,-3.57892 -4.65,-5.93615 -8.4054,-5.53145 -5.6343,0.38765 -7.9689,6.30148 -6.7901,10.75748 1.1404,3.99787 5.8059,5.94522 9.5151,3.81386 0.8755,-0.50518 1.7202,-0.91756 1.8854,-0.91756 0.389,0 1.2697,1.75418 1.1493,2.28926 -2.4894,3.64032 -8.5346,10.01755 -8.5346,10.01755 l 9.4447,0 0,-4.27069 3.6248,0 0,7.66291 -18.4594,0 0,-2.59996 c 0,0 4.9458,-5.13602 6.5802,-7.94879 -4.0254,-0.14743 -7.2701,-2.70173 -8.4348,-6.74007 -0.6797,-2.12618 -0.3751,-6.98938 0.5145,-9.08555 1.486,-3.49399 5.5448,-6.32899 9.2553,-6.49207 6.2295,-0.41895 9.5343,3.95083 11.1842,7.18256 l 0,0 z m 0,0"
         id="path17-5-0-1-5-7"
         style="opacity:1"
         inkscape:connector-curvature="0" />
    </g>
    <!--<text
       xml:space="preserve"
       style="font-style:normal;font-variant:normal;font-weight:normal;font-stretch:normal;font-size:40px;line-height:125%;font-family:Carlito;-inkscape-font-specification:'Carlito, Normal';text-align:center;letter-spacing:0px;word-spacing:0px;writing-mode:lr-tb;text-anchor:middle;fill:#000000;fill-opacity:1;stroke:none;stroke-width:1px;stroke-linecap:butt;stroke-linejoin:miter;stroke-opacity:1"
       x="2159.5825"
       y="-1733.0996"
       id="text5630-0"
       sodipodi:linespacing="125%"><tspan
         sodipodi:role="line"
         x="2159.5825"
         y="-1733.0996"
         id="tspan4923"
         style="font-style:normal;font-variant:normal;font-weight:normal;font-stretch:normal;font-size:45px;line-height:125%;font-family:Carlito;-inkscape-font-specification:'Carlito, Normal';text-align:center;writing-mode:lr-tb;text-anchor:middle">52 Vector Poker Standard Playing Card Faces Version 2.0</tspan><tspan
         sodipodi:role="line"
         x="2159.5825"
         y="-1676.8496"
         id="tspan5035"
         style="font-style:normal;font-variant:normal;font-weight:normal;font-stretch:normal;font-size:45px;line-height:125%;font-family:Carlito;-inkscape-font-specification:'Carlito, Normal';text-align:center;writing-mode:lr-tb;text-anchor:middle">(Color Set - Plus Two Jokers)</tspan><tspan
         sodipodi:role="line"
         x="2159.5825"
         y="-1620.5996"
         id="tspan4927"
         style="font-style:normal;font-variant:normal;font-weight:normal;font-stretch:normal;font-size:45px;line-height:125%;font-family:Carlito;-inkscape-font-specification:'Carlito, Normal';text-align:center;writing-mode:lr-tb;text-anchor:middle">Copyright 2015 - Chris Aguilar</tspan><tspan
         sodipodi:role="line"
         x="2159.5825"
         y="-1564.3496"
         id="tspan4931"
         style="font-style:normal;font-variant:normal;font-weight:normal;font-stretch:normal;font-size:45px;line-height:125%;font-family:Carlito;-inkscape-font-specification:'Carlito, Normal';text-align:center;writing-mode:lr-tb;text-anchor:middle">http://sourceforge.net/projects/vector-cards/</tspan><tspan
         sodipodi:role="line"
         x="2159.5825"
         y="-1508.0996"
         id="tspan4929"
         style="font-style:normal;font-variant:normal;font-weight:normal;font-stretch:normal;font-size:45px;line-height:125%;font-family:Carlito;-inkscape-font-specification:'Carlito, Normal';text-align:center;writing-mode:lr-tb;text-anchor:middle" /><tspan
         sodipodi:role="line"
         x="2159.5825"
         y="-1451.8496"
         id="tspan5638-6"
         style="font-style:normal;font-variant:normal;font-weight:normal;font-stretch:normal;font-size:45px;line-height:125%;font-family:Carlito;-inkscape-font-specification:'Carlito, Normal';text-align:center;writing-mode:lr-tb;text-anchor:middle">Licensed under LGPL 3.0</tspan><tspan
         sodipodi:role="line"
         x="2159.5825"
         y="-1395.5996"
         id="tspan4919"
         style="font-style:normal;font-variant:normal;font-weight:normal;font-stretch:normal;font-size:45px;line-height:125%;font-family:Carlito;-inkscape-font-specification:'Carlito, Normal';text-align:center;writing-mode:lr-tb;text-anchor:middle">http://www.gnu.org/licenses/lgpl.html</tspan><tspan
         sodipodi:role="line"
         x="2159.5825"
         y="-1339.3496"
         id="tspan5031"
         style="font-style:normal;font-variant:normal;font-weight:normal;font-stretch:normal;font-size:45px;line-height:125%;font-family:Carlito;-inkscape-font-specification:'Carlito, Normal';text-align:center;writing-mode:lr-tb;text-anchor:middle" /><tspan
         sodipodi:role="line"
         x="2159.5825"
         y="-1283.0996"
         id="tspan5033"
         style="font-style:normal;font-variant:normal;font-weight:normal;font-stretch:normal;font-size:45px;line-height:125%;font-family:Carlito;-inkscape-font-specification:'Carlito, Normal';text-align:center;writing-mode:lr-tb;text-anchor:middle">Each Card Measures (63mm x 88mm)</tspan><tspan
         sodipodi:role="line"
         x="2159.5825"
         y="-1226.8496"
         id="tspan5634-6" /></text>-->
  </g>
</svg>
