<?xml version="1.0" encoding="UTF-8" standalone="no"?>
<svg
   xmlns:dc="http://purl.org/dc/elements/1.1/"
   xmlns:cc="http://creativecommons.org/ns#"
   xmlns:rdf="http://www.w3.org/1999/02/22-rdf-syntax-ns#"
   xmlns:svg="http://www.w3.org/2000/svg"
   xmlns="http://www.w3.org/2000/svg"
   xmlns:xlink="http://www.w3.org/1999/xlink"
   xmlns:sodipodi="http://sodipodi.sourceforge.net/DTD/sodipodi-0.dtd"
   xmlns:inkscape="http://www.inkscape.org/namespaces/inkscape"
   version="1.1"
   id="svg11376"
   viewBox="0 0 223.22835 311.81103"
   height="3.4645669in"
   width="2.480315in"
   inkscape:version="0.91 r13725"
   sodipodi:docname="Clubs2.svg">
  <sodipodi:namedview
     pagecolor="#ffffff"
     bordercolor="#666666"
     borderopacity="1"
     objecttolerance="10"
     gridtolerance="10"
     guidetolerance="10"
     inkscape:pageopacity="0"
     inkscape:pageshadow="2"
     inkscape:window-width="1440"
     inkscape:window-height="798"
     id="namedview783"
     showgrid="false"
     fit-margin-top="0"
     fit-margin-left="0"
     fit-margin-right="0"
     fit-margin-bottom="0"
     inkscape:zoom="0.26759349"
     inkscape:cx="859.01652"
     inkscape:cy="-143.05542"
     inkscape:window-x="0"
     inkscape:window-y="1"
     inkscape:window-maximized="1"
     inkscape:current-layer="layer1" />
  <defs
     id="defs11378">
    <linearGradient
       id="linearGradient3006">
      <stop
         id="stop3008"
         offset="0"
         style="stop-color:#ffffff;stop-opacity:1;" />
      <stop
         style="stop-color:#7f7f7f;stop-opacity:1;"
         offset="0.37675071"
         id="stop3014" />
      <stop
         id="stop3016"
         offset="0.80194807"
         style="stop-color:#ffffff;stop-opacity:1;" />
      <stop
         id="stop3010"
         offset="1"
         style="stop-color:#cccccc;stop-opacity:1" />
    </linearGradient>
    <linearGradient
       id="linearGradient3804">
      <stop
         id="stop3806"
         offset="0"
         style="stop-color:#000000;stop-opacity:1;" />
      <stop
         style="stop-color:#333333;stop-opacity:1"
         offset="0.5"
         id="stop3812" />
      <stop
         id="stop3808"
         offset="1"
         style="stop-color:#000000;stop-opacity:1;" />
    </linearGradient>
    <linearGradient
       id="linearGradient3851">
      <stop
         id="stop3853"
         offset="0"
         style="stop-color:#808080;stop-opacity:1;" />
      <stop
         style="stop-color:#ffffff;stop-opacity:1;"
         offset="0.5"
         id="stop3859" />
      <stop
         id="stop3855"
         offset="1"
         style="stop-color:#808080;stop-opacity:1;" />
    </linearGradient>
    <radialGradient
       gradientUnits="userSpaceOnUse"
       gradientTransform="matrix(0.97241988,-0.00350785,0.00204639,0.40929875,4026.4071,-290.65137)"
       r="74.726646"
       fy="208.92761"
       fx="44.149761"
       cy="208.92761"
       cx="44.149761"
       id="radialGradient3939-7-7"
       xlink:href="#linearGradient3933-4-3" />
    <linearGradient
       id="linearGradient3933-4-3">
      <stop
         id="stop3935-0-7"
         offset="0"
         style="stop-color:#000000;stop-opacity:1;" />
      <stop
         id="stop3937-9-2"
         offset="1"
         style="stop-color:#000000;stop-opacity:0;" />
    </linearGradient>
    <linearGradient
       gradientTransform="translate(3914.848,-255.2825)"
       gradientUnits="userSpaceOnUse"
       y2="294.38422"
       x2="178.15625"
       y1="294.38422"
       x1="81.90625"
       id="linearGradient3012-2-7"
       xlink:href="#linearGradient3006" />
    <linearGradient
       gradientUnits="userSpaceOnUse"
       y2="394.69629"
       x2="156.7487"
       y1="394.69629"
       x1="65.223801"
       id="linearGradient3810-9-1"
       xlink:href="#linearGradient3804"
       gradientTransform="translate(3914.848,-376.2825)" />
    <radialGradient
       gradientUnits="userSpaceOnUse"
       gradientTransform="matrix(0.79138519,4.4166814e-8,0,0.48100739,3940.8627,-177.7307)"
       r="43.141743"
       fy="428.49252"
       fx="114.59315"
       cy="428.49252"
       cx="114.59315"
       id="radialGradient3030-7-1"
       xlink:href="#linearGradient3024-3-7" />
    <linearGradient
       id="linearGradient3024-3-7">
      <stop
         style="stop-color:#000000;stop-opacity:1"
         offset="0"
         id="stop3028-2-7" />
      <stop
         style="stop-color:#242424;stop-opacity:1;"
         offset="1"
         id="stop3026-2-7" />
    </linearGradient>
    <linearGradient
       y2="390.78296"
       x2="183.7796"
       y1="375.92633"
       x1="145.60164"
       gradientUnits="userSpaceOnUse"
       id="linearGradient3113-4-7"
       xlink:href="#linearGradient3933-4-3"
       gradientTransform="translate(3914.848,-376.2825)" />
    <linearGradient
       gradientUnits="userSpaceOnUse"
       y2="405.19611"
       x2="116.81388"
       y1="395.66125"
       x1="113.00574"
       id="linearGradient3107-7-9"
       xlink:href="#linearGradient3933-4-3"
       gradientTransform="translate(3914.848,-376.2825)" />
    <linearGradient
       y2="459.14062"
       x2="-128.625"
       y1="459.14062"
       x1="-158.78125"
       gradientTransform="matrix(0.43846429,7.9081918e-4,-6.5324466e-4,0.53080568,903.27012,-3758.3554)"
       gradientUnits="userSpaceOnUse"
       id="linearGradient3086-3-9"
       xlink:href="#linearGradient3804" />
    <linearGradient
       y2="463.51562"
       x2="-281.15625"
       y1="463.51562"
       x1="-311.3125"
       gradientTransform="matrix(0.43846429,7.9081918e-4,-6.5324466e-4,0.53080568,970.15112,-3759.4954)"
       gradientUnits="userSpaceOnUse"
       id="linearGradient3088-8-0"
       xlink:href="#linearGradient3851" />
    <radialGradient
       gradientUnits="userSpaceOnUse"
       gradientTransform="matrix(0.97241988,-0.00350785,0.00204639,0.40929875,4026.4074,-290.65146)"
       r="74.726646"
       fy="208.92761"
       fx="44.149761"
       cy="208.92761"
       cx="44.149761"
       id="radialGradient3939-7-6"
       xlink:href="#linearGradient3933-4-3" />
    <linearGradient
       y2="536.86133"
       x2="201.77882"
       y1="536.86133"
       x1="104.75369"
       gradientTransform="translate(3896.2872,-468.4428)"
       gradientUnits="userSpaceOnUse"
       id="linearGradient3004-8"
       xlink:href="#linearGradient2989-6-6" />
    <linearGradient
       id="linearGradient2989-6-6">
      <stop
         id="stop2991-1-5"
         offset="0"
         style="stop-color:#1f1f1f;stop-opacity:1" />
      <stop
         style="stop-color:#000000;stop-opacity:1;"
         offset="0.5"
         id="stop2997-8-0" />
      <stop
         id="stop2993-9-9"
         offset="1"
         style="stop-color:#444444;stop-opacity:1" />
    </linearGradient>
    <linearGradient
       gradientTransform="translate(3914.8482,-255.28248)"
       gradientUnits="userSpaceOnUse"
       y2="294.38422"
       x2="178.15625"
       y1="294.38422"
       x1="81.90625"
       id="linearGradient3012-2-0"
       xlink:href="#linearGradient3006" />
    <linearGradient
       gradientUnits="userSpaceOnUse"
       y2="394.69629"
       x2="156.7487"
       y1="394.69629"
       x1="65.223801"
       id="linearGradient3810-9-9"
       xlink:href="#linearGradient3804"
       gradientTransform="translate(3914.8482,-376.2825)" />
    <radialGradient
       gradientUnits="userSpaceOnUse"
       gradientTransform="matrix(0.79138519,4.4166814e-8,0,0.48100739,3940.8629,-177.73073)"
       r="43.141743"
       fy="428.49252"
       fx="114.59315"
       cy="428.49252"
       cx="114.59315"
       id="radialGradient3030-7-0"
       xlink:href="#linearGradient3024-3-7" />
    <linearGradient
       y2="390.78296"
       x2="183.7796"
       y1="375.92633"
       x1="145.60164"
       gradientUnits="userSpaceOnUse"
       id="linearGradient3113-4-8"
       xlink:href="#linearGradient3933-4-3"
       gradientTransform="translate(3914.8482,-376.2825)" />
    <linearGradient
       gradientUnits="userSpaceOnUse"
       y2="405.19611"
       x2="116.81388"
       y1="395.66125"
       x1="113.00574"
       id="linearGradient3107-7-3"
       xlink:href="#linearGradient3933-4-3"
       gradientTransform="translate(3914.8482,-376.2825)" />
    <linearGradient
       y2="459.14062"
       x2="-128.625"
       y1="459.14062"
       x1="-158.78125"
       gradientTransform="matrix(0.43846429,7.9081918e-4,-6.5324466e-4,0.53080568,903.2701,-3758.3555)"
       gradientUnits="userSpaceOnUse"
       id="linearGradient3086-3-7"
       xlink:href="#linearGradient3804" />
    <linearGradient
       y2="463.51562"
       x2="-281.15625"
       y1="463.51562"
       x1="-311.3125"
       gradientTransform="matrix(0.43846429,7.9081918e-4,-6.5324466e-4,0.53080568,970.15118,-3759.4955)"
       gradientUnits="userSpaceOnUse"
       id="linearGradient3088-8-1"
       xlink:href="#linearGradient3851" />
    <pattern
       patternTransform="matrix(-0.11059956,0.11059956,-0.11059956,-0.11059956,-70.743467,2137.2659)"
       id="pattern72508"
       xlink:href="#pattern13545-1" />
    <pattern
       xlink:href="#pattern13024-5"
       id="pattern13545-1"
       patternTransform="matrix(-0.11059956,0.11059956,-0.11059956,-0.11059956,-106.1174,687.64592)" />
    <pattern
       patternUnits="userSpaceOnUse"
       width="108.6184"
       height="110.74085"
       patternTransform="translate(-254.02376,74.426221)"
       id="pattern13024-5">
      <path
         transform="translate(1070.3552,-11.763587)"
         d="m -1016.046,25.720671 -10.7642,16.120541 7.1773,18.006272 -18.6578,-5.255841 -14.9071,12.390288 -0.767,-19.36883 -16.3904,-10.348653 18.1838,-6.714754 4.7773,-18.786107 12.0052,15.218884 z"
         id="path13016-2"
         style="fill:#131f67;fill-opacity:1;stroke:none" />
      <path
         style="fill:#131f67;fill-opacity:1;stroke:none"
         id="path13018-7"
         d="m -1016.046,25.720671 -10.7642,16.120541 7.1773,18.006272 -18.6578,-5.255841 -14.9071,12.390288 -0.767,-19.36883 -16.3904,-10.348653 18.1838,-6.714754 4.7773,-18.786107 12.0052,15.218884 z"
         transform="matrix(0.8660254,0.5,-0.5,0.8660254,946.33909,568.72784)" />
      <path
         d="m -1016.046,25.720671 -10.7642,16.120541 7.1773,18.006272 -18.6578,-5.255841 -14.9071,12.390288 -0.767,-19.36883 -16.3904,-10.348653 18.1838,-6.714754 4.7773,-18.786107 12.0052,15.218884 z"
         id="path13020-6"
         style="fill:#131f67;fill-opacity:1;stroke:none"
         transform="translate(1124.6644,-11.763587)" />
      <path
         style="fill:#131f67;fill-opacity:1;stroke:none"
         id="path13022-1"
         d="m -1016.046,25.720671 -10.7642,16.120541 7.1773,18.006272 -18.6578,-5.255841 -14.9071,12.390288 -0.767,-19.36883 -16.3904,-10.348653 18.1838,-6.714754 4.7773,-18.786107 12.0052,15.218884 z"
         transform="matrix(0.8660254,0.5,-0.5,0.8660254,1000.6483,568.72784)" />
    </pattern>
    <pattern
       patternTransform="matrix(0.10623121,-0.1062312,0.10623121,0.1062312,-199.21061,2428.6515)"
       id="pattern72564"
       xlink:href="#pattern15142-1" />
    <pattern
       xlink:href="#pattern13074-4-7"
       id="pattern15142-1"
       patternTransform="matrix(0.10623121,-0.1062312,0.10623121,0.1062312,-598.64084,979.03152)" />
    <pattern
       xlink:href="#pattern13064-2-4"
       id="pattern13074-4-7"
       patternTransform="matrix(0.10623121,-0.1062312,0.10623121,0.1062312,-605.82881,365.81179)" />
    <pattern
       xlink:href="#pattern8526-950-188-3-0"
       id="pattern13064-2-4"
       patternTransform="matrix(0.10623121,-0.1062312,0.10623121,0.1062312,-836.82881,38.811786)" />
    <pattern
       xlink:href="#pattern8519-687-26-2-9"
       id="pattern8526-950-188-3-0"
       patternTransform="matrix(0.10623121,-0.1062312,0.10623121,0.1062312,13.113538,22.901883)" />
    <pattern
       xlink:href="#pattern8507-266-27-2-4"
       id="pattern8519-687-26-2-9"
       patternTransform="matrix(0.10623121,-0.1062312,0.10623121,0.1062312,-23.656015,100.68363)" />
    <pattern
       xlink:href="#pattern8501-248-271-1-8"
       id="pattern8507-266-27-2-4"
       patternTransform="matrix(0.10623119,-0.10623119,0.10623119,0.10623119,194.54709,-74.729113)" />
    <pattern
       xlink:href="#pattern8475-545-163-6-8"
       id="pattern8501-248-271-1-8"
       patternTransform="matrix(0.0652057,-0.0652057,0.0652057,0.0652057,194.54709,-74.729113)" />
    <pattern
       xlink:href="#pattern8463-7-486-8-2"
       id="pattern8475-545-163-6-8"
       patternTransform="matrix(0.11006325,-0.11006325,0.11006325,0.11006325,-254.02376,74.426221)" />
    <pattern
       patternUnits="userSpaceOnUse"
       width="108.6184"
       height="110.74085"
       patternTransform="translate(-254.02376,74.426221)"
       id="pattern8463-7-486-8-2">
      <path
         transform="translate(1070.3552,-11.763587)"
         d="m -1016.046,25.720671 -10.7642,16.120541 7.1773,18.006272 -18.6578,-5.255841 -14.9071,12.390288 -0.767,-19.36883 -16.3904,-10.348653 18.1838,-6.714754 4.7773,-18.786107 12.0052,15.218884 z"
         id="path11396-5-4"
         style="fill:#d40000;fill-opacity:1;stroke:none" />
      <path
         style="fill:#d40000;fill-opacity:1;stroke:none"
         id="path11398-7-5"
         d="m -1016.046,25.720671 -10.7642,16.120541 7.1773,18.006272 -18.6578,-5.255841 -14.9071,12.390288 -0.767,-19.36883 -16.3904,-10.348653 18.1838,-6.714754 4.7773,-18.786107 12.0052,15.218884 z"
         transform="matrix(0.8660254,0.5,-0.5,0.8660254,946.33909,568.72784)" />
      <path
         d="m -1016.046,25.720671 -10.7642,16.120541 7.1773,18.006272 -18.6578,-5.255841 -14.9071,12.390288 -0.767,-19.36883 -16.3904,-10.348653 18.1838,-6.714754 4.7773,-18.786107 12.0052,15.218884 z"
         id="path11400-6-5"
         style="fill:#d40000;fill-opacity:1;stroke:none"
         transform="translate(1124.6644,-11.763587)" />
      <path
         style="fill:#d40000;fill-opacity:1;stroke:none"
         id="path11402-1-1"
         d="m -1016.046,25.720671 -10.7642,16.120541 7.1773,18.006272 -18.6578,-5.255841 -14.9071,12.390288 -0.767,-19.36883 -16.3904,-10.348653 18.1838,-6.714754 4.7773,-18.786107 12.0052,15.218884 z"
         transform="matrix(0.8660254,0.5,-0.5,0.8660254,1000.6483,568.72784)" />
    </pattern>
    <filter
       id="filter5450-1-8"
       style="color-interpolation-filters:sRGB">
      <feBlend
         mode="screen"
         in2="BackgroundImage"
         id="feBlend5452-1-8" />
    </filter>
    <filter
       id="filter5450-1-3-7-62-4"
       style="color-interpolation-filters:sRGB">
      <feBlend
         mode="screen"
         in2="BackgroundImage"
         id="feBlend5452-1-1-1-58-9" />
    </filter>
    <filter
       id="filter5450-2-5-2-12-86-5"
       style="color-interpolation-filters:sRGB">
      <feBlend
         mode="screen"
         in2="BackgroundImage"
         id="feBlend5452-4-2-3-7-6-8" />
    </filter>
  </defs>
  <metadata
     id="metadata11381">
    <rdf:RDF>
      <cc:Work
         rdf:about="">
        <dc:format>image/svg+xml</dc:format>
        <dc:type
           rdf:resource="http://purl.org/dc/dcmitype/StillImage" />
        <dc:title></dc:title>
      </cc:Work>
    </rdf:RDF>
  </metadata>
  <g
     transform="translate(-732.2441,1094.4207)"
     id="layer1">
    <g
       transform="translate(4.9835822,-5.5524948)"
       id="g5421">
      <g
         id="layer1-33-1-8-0-7"
         transform="matrix(0.99553774,0,0,0.99680134,468.48764,-1457.4607)">
        <rect
           y="370.27557"
           x="260.43304"
           height="311.81104"
           width="223.22835"
           id="rect6355-6-85-4-0-5"
           style="display:inline;fill:#ffffff;fill-opacity:1;stroke:#000000;stroke-width:1.0005666;stroke-miterlimit:4;stroke-dasharray:none;stroke-opacity:1"
           rx="10.677567"
           ry="10.664032" />
      </g>
      <path
         d="m 838.87056,-1055.3647 c -9.77449,0.2122 -14.15744,11.2173 -6.91839,19.7633 1.04989,1.2465 1.15822,1.9619 -0.76458,0.7645 -4.87384,-3.2592 -14.21924,-1.1166 -14.69781,8.8473 -0.59114,12.2769 16.56286,15.8143 19.78372,2.7597 0.17004,-1.3774 1.28941,-1.346 1.01952,0.6091 -0.29368,5.3064 -1.95085,10.2661 -4.22863,15.1025 3.83908,0 8.12954,0 11.6202,0 -2.27768,-4.8364 -3.93495,-9.7961 -4.22864,-15.1025 -0.2699,-1.9551 0.84949,-1.9865 1.01953,-0.6091 3.22086,13.0546 20.37487,9.5172 19.78372,-2.7597 -0.47846,-9.9639 -9.82396,-12.1065 -14.69781,-8.8473 -1.92279,1.1974 -1.81448,0.482 -0.76458,-0.7645 7.23906,-8.546 2.8561,-19.551 -6.9183,-19.7633 0,-10e-5 0,0 -0.01,0 z"
         id="path147-0-8-1-6-7-2-1-6-3"
         style="display:inline;opacity:1"
         inkscape:connector-curvature="0" />
      <path
         d="m 838.87056,-809.73166 c -9.77448,-0.21226 -14.15744,-11.21726 -6.91838,-19.76328 1.0499,-1.24653 1.15822,-1.96187 -0.76458,-0.76453 -4.87385,3.2592 -14.21926,1.11663 -14.69782,-8.84728 -0.59115,-12.27694 16.56287,-15.81426 19.78373,-2.75966 0.17004,1.37736 1.28941,1.34593 1.01952,-0.60917 -0.29368,-5.30641 -1.95084,-10.26605 -4.22863,-15.10252 3.83908,0 8.12955,0 11.6202,0 -2.27768,4.83647 -3.93495,9.79611 -4.22864,15.10252 -0.26989,1.9551 0.84949,1.98653 1.01953,0.60917 3.22086,-13.0546 20.37487,-9.51728 19.78372,2.75966 -0.47846,9.96391 -9.82396,12.10648 -14.69781,8.84728 -1.92279,-1.19734 -1.81447,-0.482 -0.76458,0.76453 7.23906,8.54602 2.8561,19.55101 -6.91829,19.76328 0,6e-5 0,-5e-5 -0.01,0 z"
         id="path147-0-8-1-6-1-4-5-4-2"
         style="display:inline;opacity:1"
         inkscape:connector-curvature="0" />
      <path
         d="m 932.85252,-827.36914 c 3.90977,-0.0884 5.66301,-4.67386 2.76739,-8.2347 -0.42002,-0.51939 -0.46332,-0.81745 0.30583,-0.31855 1.94956,1.358 5.68771,0.46525 5.87915,-3.68638 0.23644,-5.11539 -6.6252,-6.58927 -7.91353,-1.14986 -0.0677,0.57391 -0.51579,0.56082 -0.40777,-0.25381 0.11747,-2.21101 0.7803,-4.27752 1.69142,-6.29272 -1.54926,0 -3.09862,0 -4.64787,0 0.91112,2.0152 1.57394,4.08171 1.69142,6.29272 0.10801,0.81463 -0.33978,0.82772 -0.40777,0.25381 -1.28833,-5.43941 -8.14997,-3.96553 -7.91353,1.14986 0.19144,4.15163 3.92958,5.04438 5.87914,3.68638 0.76916,-0.4989 0.72585,-0.20084 0.30583,0.31855 -2.89562,3.56084 -1.14238,8.14624 2.7673,8.2347 9.9e-4,2e-5 0,-2e-5 0,0 z"
         id="path147-6-9-8-7-0-5-4-9-1"
         style="display:inline;opacity:1"
         inkscape:connector-curvature="0" />
      <path
         d="m 744.89758,-1038.5561 c -3.90978,0.088 -5.66302,4.6739 -2.7674,8.2347 0.42002,0.5194 0.46333,0.8175 -0.30583,0.3186 -1.94956,-1.358 -5.68769,-0.4653 -5.87913,3.6863 -0.23644,5.1154 6.62519,6.5893 7.91352,1.1499 0.0677,-0.5739 0.51578,-0.5608 0.40777,0.2538 -0.11748,2.211 -0.7803,4.2775 -1.69142,6.2927 1.54925,0 3.09861,0 4.64787,0 -0.91112,-2.0152 -1.57395,-4.0817 -1.69142,-6.2927 -0.10802,-0.8146 0.33977,-0.8277 0.40777,-0.2538 1.28833,5.4394 8.14997,3.9655 7.91353,-1.1499 -0.19144,-4.1516 -3.92959,-5.0443 -5.87915,-3.6863 -0.76915,0.4989 -0.72585,0.2008 -0.30583,-0.3186 2.89562,-3.5608 1.14238,-8.1462 -2.76729,-8.2347 -10e-4,0 0,0 0,0 z"
         id="path147-6-9-8-7-4-5-9-2-7"
         style="display:inline;opacity:1"
         inkscape:connector-curvature="0" />
      <path
         d="m 735.04977,-1041.7521 0.16008,-2.0284 c 0.50554,-6.2682 1.85071,-8.3828 9.48051,-14.9264 3.70419,-3.1719 4.91885,-4.737 5.08909,-6.5527 0.48512,-4.2827 -3.29971,-5.6194 -5.76486,-5.639 -3.19478,-0.029 -6.80938,1.9175 -5.08402,6.4418 l -3.58513,1.0743 c -0.72057,-4.2202 0.0209,-8.1792 3.37528,-9.9361 4.47982,-2.2909 10.22417,-1.3928 13.12457,2.2164 1.94936,2.4214 2.39476,5.7721 1.34905,8.3945 -3.0552,6.6989 -13.41895,9.6463 -14.27402,17.3973 l 11.45426,0 0,-4.3153 3.37527,0 0,7.9441 -18.70008,-0.07 z m 0,0"
         id="path15-9-1-0-1"
         style="opacity:1"
         inkscape:connector-curvature="0" />
      <path
         d="m 942.19967,-824.17315 -0.16008,2.02849 c -0.50554,6.26809 -1.85071,8.3827 -9.48051,14.92631 -3.7042,3.17192 -4.91885,4.737 -5.08909,6.55277 -0.48512,4.28276 3.29971,5.61937 5.76486,5.639 3.19478,0.0289 6.80938,-1.91754 5.08401,-6.44182 l 3.58513,-1.07426 c 0.72058,4.22006 -0.0209,8.17916 -3.37527,9.93612 -4.47982,2.29085 -10.22417,1.39273 -13.12457,-2.21649 -1.94936,-2.42133 -2.39476,-5.77208 -1.34905,-8.39446 3.0552,-6.69891 13.41895,-9.64635 14.27402,-17.39738 l -11.45426,0 0,4.31546 -3.37527,0 0,-7.94421 18.70008,0.0708 z m 0,0"
         id="path15-5-7-4-9-4"
         style="opacity:1"
         inkscape:connector-curvature="0" />
    </g>
    <!--<text
       xml:space="preserve"
       style="font-style:normal;font-variant:normal;font-weight:normal;font-stretch:normal;font-size:40px;line-height:125%;font-family:Carlito;-inkscape-font-specification:'Carlito, Normal';text-align:center;letter-spacing:0px;word-spacing:0px;writing-mode:lr-tb;text-anchor:middle;fill:#000000;fill-opacity:1;stroke:none;stroke-width:1px;stroke-linecap:butt;stroke-linejoin:miter;stroke-opacity:1"
       x="2159.5825"
       y="-1733.0996"
       id="text5630-0"
       sodipodi:linespacing="125%"><tspan
         sodipodi:role="line"
         x="2159.5825"
         y="-1733.0996"
         id="tspan4923"
         style="font-style:normal;font-variant:normal;font-weight:normal;font-stretch:normal;font-size:45px;line-height:125%;font-family:Carlito;-inkscape-font-specification:'Carlito, Normal';text-align:center;writing-mode:lr-tb;text-anchor:middle">52 Vector Poker Standard Playing Card Faces Version 2.0</tspan><tspan
         sodipodi:role="line"
         x="2159.5825"
         y="-1676.8496"
         id="tspan5035"
         style="font-style:normal;font-variant:normal;font-weight:normal;font-stretch:normal;font-size:45px;line-height:125%;font-family:Carlito;-inkscape-font-specification:'Carlito, Normal';text-align:center;writing-mode:lr-tb;text-anchor:middle">(Color Set - Plus Two Jokers)</tspan><tspan
         sodipodi:role="line"
         x="2159.5825"
         y="-1620.5996"
         id="tspan4927"
         style="font-style:normal;font-variant:normal;font-weight:normal;font-stretch:normal;font-size:45px;line-height:125%;font-family:Carlito;-inkscape-font-specification:'Carlito, Normal';text-align:center;writing-mode:lr-tb;text-anchor:middle">Copyright 2015 - Chris Aguilar</tspan><tspan
         sodipodi:role="line"
         x="2159.5825"
         y="-1564.3496"
         id="tspan4931"
         style="font-style:normal;font-variant:normal;font-weight:normal;font-stretch:normal;font-size:45px;line-height:125%;font-family:Carlito;-inkscape-font-specification:'Carlito, Normal';text-align:center;writing-mode:lr-tb;text-anchor:middle">http://sourceforge.net/projects/vector-cards/</tspan><tspan
         sodipodi:role="line"
         x="2159.5825"
         y="-1508.0996"
         id="tspan4929"
         style="font-style:normal;font-variant:normal;font-weight:normal;font-stretch:normal;font-size:45px;line-height:125%;font-family:Carlito;-inkscape-font-specification:'Carlito, Normal';text-align:center;writing-mode:lr-tb;text-anchor:middle" /><tspan
         sodipodi:role="line"
         x="2159.5825"
         y="-1451.8496"
         id="tspan5638-6"
         style="font-style:normal;font-variant:normal;font-weight:normal;font-stretch:normal;font-size:45px;line-height:125%;font-family:Carlito;-inkscape-font-specification:'Carlito, Normal';text-align:center;writing-mode:lr-tb;text-anchor:middle">Licensed under LGPL 3.0</tspan><tspan
         sodipodi:role="line"
         x="2159.5825"
         y="-1395.5996"
         id="tspan4919"
         style="font-style:normal;font-variant:normal;font-weight:normal;font-stretch:normal;font-size:45px;line-height:125%;font-family:Carlito;-inkscape-font-specification:'Carlito, Normal';text-align:center;writing-mode:lr-tb;text-anchor:middle">http://www.gnu.org/licenses/lgpl.html</tspan><tspan
         sodipodi:role="line"
         x="2159.5825"
         y="-1339.3496"
         id="tspan5031"
         style="font-style:normal;font-variant:normal;font-weight:normal;font-stretch:normal;font-size:45px;line-height:125%;font-family:Carlito;-inkscape-font-specification:'Carlito, Normal';text-align:center;writing-mode:lr-tb;text-anchor:middle" /><tspan
         sodipodi:role="line"
         x="2159.5825"
         y="-1283.0996"
         id="tspan5033"
         style="font-style:normal;font-variant:normal;font-weight:normal;font-stretch:normal;font-size:45px;line-height:125%;font-family:Carlito;-inkscape-font-specification:'Carlito, Normal';text-align:center;writing-mode:lr-tb;text-anchor:middle">Each Card Measures (63mm x 88mm)</tspan><tspan
         sodipodi:role="line"
         x="2159.5825"
         y="-1226.8496"
         id="tspan5634-6" /></text>-->
  </g>
</svg>
