<?xml version="1.0" encoding="UTF-8" standalone="no"?>
<svg
   xmlns:dc="http://purl.org/dc/elements/1.1/"
   xmlns:cc="http://creativecommons.org/ns#"
   xmlns:rdf="http://www.w3.org/1999/02/22-rdf-syntax-ns#"
   xmlns:svg="http://www.w3.org/2000/svg"
   xmlns="http://www.w3.org/2000/svg"
   xmlns:xlink="http://www.w3.org/1999/xlink"
   xmlns:sodipodi="http://sodipodi.sourceforge.net/DTD/sodipodi-0.dtd"
   xmlns:inkscape="http://www.inkscape.org/namespaces/inkscape"
   version="1.1"
   id="svg11376"
   viewBox="0 0 223.22833 311.81099"
   height="3.4645665in"
   width="2.4803147in"
   inkscape:version="0.91 r13725"
   sodipodi:docname="Hearts8.svg">
  <sodipodi:namedview
     pagecolor="#ffffff"
     bordercolor="#666666"
     borderopacity="1"
     objecttolerance="10"
     gridtolerance="10"
     guidetolerance="10"
     inkscape:pageopacity="0"
     inkscape:pageshadow="2"
     inkscape:window-width="1440"
     inkscape:window-height="798"
     id="namedview783"
     showgrid="false"
     fit-margin-top="0"
     fit-margin-left="0"
     fit-margin-right="0"
     fit-margin-bottom="0"
     inkscape:zoom="0.1892172"
     inkscape:cx="-151.61419"
     inkscape:cy="-161.1904"
     inkscape:window-x="0"
     inkscape:window-y="1"
     inkscape:window-maximized="1"
     inkscape:current-layer="layer1" />
  <defs
     id="defs11378">
    <linearGradient
       id="linearGradient3006">
      <stop
         id="stop3008"
         offset="0"
         style="stop-color:#ffffff;stop-opacity:1;" />
      <stop
         style="stop-color:#7f7f7f;stop-opacity:1;"
         offset="0.37675071"
         id="stop3014" />
      <stop
         id="stop3016"
         offset="0.80194807"
         style="stop-color:#ffffff;stop-opacity:1;" />
      <stop
         id="stop3010"
         offset="1"
         style="stop-color:#cccccc;stop-opacity:1" />
    </linearGradient>
    <linearGradient
       id="linearGradient3804">
      <stop
         id="stop3806"
         offset="0"
         style="stop-color:#000000;stop-opacity:1;" />
      <stop
         style="stop-color:#333333;stop-opacity:1"
         offset="0.5"
         id="stop3812" />
      <stop
         id="stop3808"
         offset="1"
         style="stop-color:#000000;stop-opacity:1;" />
    </linearGradient>
    <linearGradient
       id="linearGradient3851">
      <stop
         id="stop3853"
         offset="0"
         style="stop-color:#808080;stop-opacity:1;" />
      <stop
         style="stop-color:#ffffff;stop-opacity:1;"
         offset="0.5"
         id="stop3859" />
      <stop
         id="stop3855"
         offset="1"
         style="stop-color:#808080;stop-opacity:1;" />
    </linearGradient>
    <radialGradient
       gradientUnits="userSpaceOnUse"
       gradientTransform="matrix(0.97241988,-0.00350785,0.00204639,0.40929875,4026.4071,-290.65137)"
       r="74.726646"
       fy="208.92761"
       fx="44.149761"
       cy="208.92761"
       cx="44.149761"
       id="radialGradient3939-7-7"
       xlink:href="#linearGradient3933-4-3" />
    <linearGradient
       id="linearGradient3933-4-3">
      <stop
         id="stop3935-0-7"
         offset="0"
         style="stop-color:#000000;stop-opacity:1;" />
      <stop
         id="stop3937-9-2"
         offset="1"
         style="stop-color:#000000;stop-opacity:0;" />
    </linearGradient>
    <linearGradient
       gradientTransform="translate(3914.848,-255.2825)"
       gradientUnits="userSpaceOnUse"
       y2="294.38422"
       x2="178.15625"
       y1="294.38422"
       x1="81.90625"
       id="linearGradient3012-2-7"
       xlink:href="#linearGradient3006" />
    <linearGradient
       gradientUnits="userSpaceOnUse"
       y2="394.69629"
       x2="156.7487"
       y1="394.69629"
       x1="65.223801"
       id="linearGradient3810-9-1"
       xlink:href="#linearGradient3804"
       gradientTransform="translate(3914.848,-376.2825)" />
    <radialGradient
       gradientUnits="userSpaceOnUse"
       gradientTransform="matrix(0.79138519,4.4166814e-8,0,0.48100739,3940.8627,-177.7307)"
       r="43.141743"
       fy="428.49252"
       fx="114.59315"
       cy="428.49252"
       cx="114.59315"
       id="radialGradient3030-7-1"
       xlink:href="#linearGradient3024-3-7" />
    <linearGradient
       id="linearGradient3024-3-7">
      <stop
         style="stop-color:#000000;stop-opacity:1"
         offset="0"
         id="stop3028-2-7" />
      <stop
         style="stop-color:#242424;stop-opacity:1;"
         offset="1"
         id="stop3026-2-7" />
    </linearGradient>
    <linearGradient
       y2="390.78296"
       x2="183.7796"
       y1="375.92633"
       x1="145.60164"
       gradientUnits="userSpaceOnUse"
       id="linearGradient3113-4-7"
       xlink:href="#linearGradient3933-4-3"
       gradientTransform="translate(3914.848,-376.2825)" />
    <linearGradient
       gradientUnits="userSpaceOnUse"
       y2="405.19611"
       x2="116.81388"
       y1="395.66125"
       x1="113.00574"
       id="linearGradient3107-7-9"
       xlink:href="#linearGradient3933-4-3"
       gradientTransform="translate(3914.848,-376.2825)" />
    <linearGradient
       y2="459.14062"
       x2="-128.625"
       y1="459.14062"
       x1="-158.78125"
       gradientTransform="matrix(0.43846429,7.9081918e-4,-6.5324466e-4,0.53080568,903.27012,-3758.3554)"
       gradientUnits="userSpaceOnUse"
       id="linearGradient3086-3-9"
       xlink:href="#linearGradient3804" />
    <linearGradient
       y2="463.51562"
       x2="-281.15625"
       y1="463.51562"
       x1="-311.3125"
       gradientTransform="matrix(0.43846429,7.9081918e-4,-6.5324466e-4,0.53080568,970.15112,-3759.4954)"
       gradientUnits="userSpaceOnUse"
       id="linearGradient3088-8-0"
       xlink:href="#linearGradient3851" />
    <radialGradient
       gradientUnits="userSpaceOnUse"
       gradientTransform="matrix(0.97241988,-0.00350785,0.00204639,0.40929875,4026.4074,-290.65146)"
       r="74.726646"
       fy="208.92761"
       fx="44.149761"
       cy="208.92761"
       cx="44.149761"
       id="radialGradient3939-7-6"
       xlink:href="#linearGradient3933-4-3" />
    <linearGradient
       y2="536.86133"
       x2="201.77882"
       y1="536.86133"
       x1="104.75369"
       gradientTransform="translate(3896.2872,-468.4428)"
       gradientUnits="userSpaceOnUse"
       id="linearGradient3004-8"
       xlink:href="#linearGradient2989-6-6" />
    <linearGradient
       id="linearGradient2989-6-6">
      <stop
         id="stop2991-1-5"
         offset="0"
         style="stop-color:#1f1f1f;stop-opacity:1" />
      <stop
         style="stop-color:#000000;stop-opacity:1;"
         offset="0.5"
         id="stop2997-8-0" />
      <stop
         id="stop2993-9-9"
         offset="1"
         style="stop-color:#444444;stop-opacity:1" />
    </linearGradient>
    <linearGradient
       gradientTransform="translate(3914.8482,-255.28248)"
       gradientUnits="userSpaceOnUse"
       y2="294.38422"
       x2="178.15625"
       y1="294.38422"
       x1="81.90625"
       id="linearGradient3012-2-0"
       xlink:href="#linearGradient3006" />
    <linearGradient
       gradientUnits="userSpaceOnUse"
       y2="394.69629"
       x2="156.7487"
       y1="394.69629"
       x1="65.223801"
       id="linearGradient3810-9-9"
       xlink:href="#linearGradient3804"
       gradientTransform="translate(3914.8482,-376.2825)" />
    <radialGradient
       gradientUnits="userSpaceOnUse"
       gradientTransform="matrix(0.79138519,4.4166814e-8,0,0.48100739,3940.8629,-177.73073)"
       r="43.141743"
       fy="428.49252"
       fx="114.59315"
       cy="428.49252"
       cx="114.59315"
       id="radialGradient3030-7-0"
       xlink:href="#linearGradient3024-3-7" />
    <linearGradient
       y2="390.78296"
       x2="183.7796"
       y1="375.92633"
       x1="145.60164"
       gradientUnits="userSpaceOnUse"
       id="linearGradient3113-4-8"
       xlink:href="#linearGradient3933-4-3"
       gradientTransform="translate(3914.8482,-376.2825)" />
    <linearGradient
       gradientUnits="userSpaceOnUse"
       y2="405.19611"
       x2="116.81388"
       y1="395.66125"
       x1="113.00574"
       id="linearGradient3107-7-3"
       xlink:href="#linearGradient3933-4-3"
       gradientTransform="translate(3914.8482,-376.2825)" />
    <linearGradient
       y2="459.14062"
       x2="-128.625"
       y1="459.14062"
       x1="-158.78125"
       gradientTransform="matrix(0.43846429,7.9081918e-4,-6.5324466e-4,0.53080568,903.2701,-3758.3555)"
       gradientUnits="userSpaceOnUse"
       id="linearGradient3086-3-7"
       xlink:href="#linearGradient3804" />
    <linearGradient
       y2="463.51562"
       x2="-281.15625"
       y1="463.51562"
       x1="-311.3125"
       gradientTransform="matrix(0.43846429,7.9081918e-4,-6.5324466e-4,0.53080568,970.15118,-3759.4955)"
       gradientUnits="userSpaceOnUse"
       id="linearGradient3088-8-1"
       xlink:href="#linearGradient3851" />
    <pattern
       patternTransform="matrix(-0.11059956,0.11059956,-0.11059956,-0.11059956,-70.743467,2137.2659)"
       id="pattern72508"
       xlink:href="#pattern13545-1" />
    <pattern
       xlink:href="#pattern13024-5"
       id="pattern13545-1"
       patternTransform="matrix(-0.11059956,0.11059956,-0.11059956,-0.11059956,-106.1174,687.64592)" />
    <pattern
       patternUnits="userSpaceOnUse"
       width="108.6184"
       height="110.74085"
       patternTransform="translate(-254.02376,74.426221)"
       id="pattern13024-5">
      <path
         transform="translate(1070.3552,-11.763587)"
         d="m -1016.046,25.720671 -10.7642,16.120541 7.1773,18.006272 -18.6578,-5.255841 -14.9071,12.390288 -0.767,-19.36883 -16.3904,-10.348653 18.1838,-6.714754 4.7773,-18.786107 12.0052,15.218884 z"
         id="path13016-2"
         style="fill:#131f67;fill-opacity:1;stroke:none" />
      <path
         style="fill:#131f67;fill-opacity:1;stroke:none"
         id="path13018-7"
         d="m -1016.046,25.720671 -10.7642,16.120541 7.1773,18.006272 -18.6578,-5.255841 -14.9071,12.390288 -0.767,-19.36883 -16.3904,-10.348653 18.1838,-6.714754 4.7773,-18.786107 12.0052,15.218884 z"
         transform="matrix(0.8660254,0.5,-0.5,0.8660254,946.33909,568.72784)" />
      <path
         d="m -1016.046,25.720671 -10.7642,16.120541 7.1773,18.006272 -18.6578,-5.255841 -14.9071,12.390288 -0.767,-19.36883 -16.3904,-10.348653 18.1838,-6.714754 4.7773,-18.786107 12.0052,15.218884 z"
         id="path13020-6"
         style="fill:#131f67;fill-opacity:1;stroke:none"
         transform="translate(1124.6644,-11.763587)" />
      <path
         style="fill:#131f67;fill-opacity:1;stroke:none"
         id="path13022-1"
         d="m -1016.046,25.720671 -10.7642,16.120541 7.1773,18.006272 -18.6578,-5.255841 -14.9071,12.390288 -0.767,-19.36883 -16.3904,-10.348653 18.1838,-6.714754 4.7773,-18.786107 12.0052,15.218884 z"
         transform="matrix(0.8660254,0.5,-0.5,0.8660254,1000.6483,568.72784)" />
    </pattern>
    <pattern
       patternTransform="matrix(0.10623121,-0.1062312,0.10623121,0.1062312,-199.21061,2428.6515)"
       id="pattern72564"
       xlink:href="#pattern15142-1" />
    <pattern
       xlink:href="#pattern13074-4-7"
       id="pattern15142-1"
       patternTransform="matrix(0.10623121,-0.1062312,0.10623121,0.1062312,-598.64084,979.03152)" />
    <pattern
       xlink:href="#pattern13064-2-4"
       id="pattern13074-4-7"
       patternTransform="matrix(0.10623121,-0.1062312,0.10623121,0.1062312,-605.82881,365.81179)" />
    <pattern
       xlink:href="#pattern8526-950-188-3-0"
       id="pattern13064-2-4"
       patternTransform="matrix(0.10623121,-0.1062312,0.10623121,0.1062312,-836.82881,38.811786)" />
    <pattern
       xlink:href="#pattern8519-687-26-2-9"
       id="pattern8526-950-188-3-0"
       patternTransform="matrix(0.10623121,-0.1062312,0.10623121,0.1062312,13.113538,22.901883)" />
    <pattern
       xlink:href="#pattern8507-266-27-2-4"
       id="pattern8519-687-26-2-9"
       patternTransform="matrix(0.10623121,-0.1062312,0.10623121,0.1062312,-23.656015,100.68363)" />
    <pattern
       xlink:href="#pattern8501-248-271-1-8"
       id="pattern8507-266-27-2-4"
       patternTransform="matrix(0.10623119,-0.10623119,0.10623119,0.10623119,194.54709,-74.729113)" />
    <pattern
       xlink:href="#pattern8475-545-163-6-8"
       id="pattern8501-248-271-1-8"
       patternTransform="matrix(0.0652057,-0.0652057,0.0652057,0.0652057,194.54709,-74.729113)" />
    <pattern
       xlink:href="#pattern8463-7-486-8-2"
       id="pattern8475-545-163-6-8"
       patternTransform="matrix(0.11006325,-0.11006325,0.11006325,0.11006325,-254.02376,74.426221)" />
    <pattern
       patternUnits="userSpaceOnUse"
       width="108.6184"
       height="110.74085"
       patternTransform="translate(-254.02376,74.426221)"
       id="pattern8463-7-486-8-2">
      <path
         transform="translate(1070.3552,-11.763587)"
         d="m -1016.046,25.720671 -10.7642,16.120541 7.1773,18.006272 -18.6578,-5.255841 -14.9071,12.390288 -0.767,-19.36883 -16.3904,-10.348653 18.1838,-6.714754 4.7773,-18.786107 12.0052,15.218884 z"
         id="path11396-5-4"
         style="fill:#d40000;fill-opacity:1;stroke:none" />
      <path
         style="fill:#d40000;fill-opacity:1;stroke:none"
         id="path11398-7-5"
         d="m -1016.046,25.720671 -10.7642,16.120541 7.1773,18.006272 -18.6578,-5.255841 -14.9071,12.390288 -0.767,-19.36883 -16.3904,-10.348653 18.1838,-6.714754 4.7773,-18.786107 12.0052,15.218884 z"
         transform="matrix(0.8660254,0.5,-0.5,0.8660254,946.33909,568.72784)" />
      <path
         d="m -1016.046,25.720671 -10.7642,16.120541 7.1773,18.006272 -18.6578,-5.255841 -14.9071,12.390288 -0.767,-19.36883 -16.3904,-10.348653 18.1838,-6.714754 4.7773,-18.786107 12.0052,15.218884 z"
         id="path11400-6-5"
         style="fill:#d40000;fill-opacity:1;stroke:none"
         transform="translate(1124.6644,-11.763587)" />
      <path
         style="fill:#d40000;fill-opacity:1;stroke:none"
         id="path11402-1-1"
         d="m -1016.046,25.720671 -10.7642,16.120541 7.1773,18.006272 -18.6578,-5.255841 -14.9071,12.390288 -0.767,-19.36883 -16.3904,-10.348653 18.1838,-6.714754 4.7773,-18.786107 12.0052,15.218884 z"
         transform="matrix(0.8660254,0.5,-0.5,0.8660254,1000.6483,568.72784)" />
    </pattern>
    <filter
       id="filter5450-1-8"
       style="color-interpolation-filters:sRGB">
      <feBlend
         mode="screen"
         in2="BackgroundImage"
         id="feBlend5452-1-8" />
    </filter>
    <filter
       id="filter5450-1-3-7-62-4"
       style="color-interpolation-filters:sRGB">
      <feBlend
         mode="screen"
         in2="BackgroundImage"
         id="feBlend5452-1-1-1-58-9" />
    </filter>
    <filter
       id="filter5450-2-5-2-12-86-5"
       style="color-interpolation-filters:sRGB">
      <feBlend
         mode="screen"
         in2="BackgroundImage"
         id="feBlend5452-4-2-3-7-6-8" />
    </filter>
  </defs>
  <metadata
     id="metadata11381">
    <rdf:RDF>
      <cc:Work
         rdf:about="">
        <dc:format>image/svg+xml</dc:format>
        <dc:type
           rdf:resource="http://purl.org/dc/dcmitype/StillImage" />
        <dc:title></dc:title>
      </cc:Work>
    </rdf:RDF>
  </metadata>
  <g
     transform="translate(-2311.6142,742.60903)"
     id="layer1">
    <g
       transform="matrix(0.99553774,0,0,0.99680134,-117.30742,318.48631)"
       id="g11195-3-7"
       style="display:inline">
      <g
         style="display:inline;opacity:1"
         id="g10140-6-7"
         transform="translate(2179.8759,-1434.2756)">
        <rect
           ry="10.664032"
           rx="10.677567"
           style="display:inline;fill:#ffffff;fill-opacity:1;stroke:#000000;stroke-width:1.0005666;stroke-miterlimit:4;stroke-dasharray:none;stroke-opacity:1"
           id="rect10142-4-2"
           width="223.22835"
           height="311.81104"
           x="260.43304"
           y="370.27557" />
      </g>
      <g
         transform="translate(2440.3089,-1064)"
         style="display:inline;opacity:1"
         id="g10160-2-4" />
      <g
         style="display:inline;opacity:1"
         id="g10166-2-7"
         transform="translate(2466.9005,-1083.9055)" />
      <path
         transform="translate(2552.9231,-853.90551)"
         style="display:inline;opacity:1;fill:#d40000"
         d="m -95.396892,-140.12123 c 0,0 -2.2247,-3.18978 -5.225698,-6.9401 -2.0077,-2.50969 -3.6127,-5.22722 -3.762,-7.56795 -0.1711,-2.67388 1.449,-5.35641 4.3821,-5.48643 2.931398,-0.12993 4.121198,2.06168 4.605598,3.86859 0.4844,-1.80691 1.6743,-3.99852 4.6056,-3.86859 2.9331,0.13002 4.5533,2.81255 4.3821,5.48643 -0.1492,2.34073 -1.7543,5.05826 -3.7619,7.56795 -3.0011,3.75032 -5.2258,6.9401 -5.2258,6.9401 z"
         id="path10174-9-0"
         inkscape:connector-curvature="0" />
      <path
         transform="translate(2552.9231,-853.90551)"
         style="display:inline;opacity:1;fill:#d40000"
         d="m 93.397604,31.743411 c 0,0.003 -2.2247,3.18978 -5.2257,6.9401 -2.0077,2.50969 -3.6127,5.22722 -3.762,7.56795 -0.1711,2.67388 1.449,5.35641 4.3821,5.48643 2.9314,0.12993 4.1212,-2.06168 4.6056,-3.86859 0.4844,1.80691 1.6743,3.99852 4.6056,3.86859 2.933096,-0.13002 4.553296,-2.81255 4.382096,-5.48643 -0.1492,-2.34073 -1.7543,-5.05826 -3.761896,-7.56795 -3.0011,-3.75032 -5.2239,-6.9375 -5.2258,-6.9401 z"
         id="path10176-9-9"
         inkscape:connector-curvature="0" />
      <path
         id="path10178-8-4"
         d="m 2551.923,-933.69987 c 0,0 -4.6663,-7.65547 -10.9609,-16.65626 -4.211,-6.02326 -7.5776,-12.54533 -7.8906,-18.16309 -0.359,-6.41731 3.0392,-12.85538 9.1914,-13.16741 6.1485,-0.31185 8.6442,4.94803 9.6601,9.28461 1.016,-4.33658 3.5117,-9.59646 9.6602,-9.28461 6.1522,0.31203 9.5504,6.7501 9.1914,13.16741 -0.313,5.61776 -3.6796,12.13983 -7.8906,18.16309 -6.2946,9.00079 -10.961,16.65626 -10.961,16.65626 z"
         style="display:inline;opacity:1;fill:#d40000"
         inkscape:connector-curvature="0" />
      <path
         transform="translate(2552.9231,-853.90551)"
         id="path10182-1-9"
         d="m -52.766444,-129.39963 c 0,0 -4.6663,-7.65547 -10.9609,-16.65626 -4.211,-6.02326 -7.5776,-12.54533 -7.8906,-18.16309 -0.359,-6.41731 3.0392,-12.85538 9.1914,-13.16741 6.1485,-0.31185 8.6442,4.94803 9.6601,9.28461 1.016,-4.33658 3.5117,-9.59646 9.6602,-9.28461 6.1522,0.31203 9.5504,6.7501 9.1914,13.16741 -0.313,5.61776 -3.6796,12.13983 -7.8906,18.16309 -6.2946,9.00079 -10.961,16.65626 -10.961,16.65626 z"
         style="display:inline;opacity:1;fill:#d40000"
         inkscape:connector-curvature="0" />
      <path
         transform="translate(2552.9231,-853.90551)"
         id="path10184-9-1"
         d="m 50.766354,-30.188979 c 0,0 -4.6663,-7.65547 -10.9609,-16.65626 -4.211,-6.02326 -7.5776,-12.54533 -7.8906,-18.16309 -0.359,-6.41731 3.0392,-12.85538 9.1914,-13.16741 6.1485,-0.31185 8.6442,4.94803 9.6601,9.28461 1.016,-4.33658 3.5117,-9.59646 9.6602,-9.28461 6.1522,0.31203 9.5504,6.7501 9.1914,13.16741 -0.313,5.61776 -3.6796,12.13983 -7.8906,18.16309 -6.2946,9.00079 -10.961,16.65626 -10.961,16.65626 z"
         style="display:inline;opacity:1;fill:#d40000"
         inkscape:connector-curvature="0" />
      <path
         transform="translate(2552.9231,-853.90551)"
         id="path10188-5-4"
         d="m 50.766354,-129.39963 c 0,0 -4.6663,-7.65547 -10.9609,-16.65626 -4.211,-6.02326 -7.5776,-12.54533 -7.8906,-18.16309 -0.359,-6.41731 3.0392,-12.85538 9.1914,-13.16741 6.1485,-0.31185 8.6442,4.94803 9.6601,9.28461 1.016,-4.33658 3.5117,-9.59646 9.6602,-9.28461 6.1522,0.31203 9.5504,6.7501 9.1914,13.16741 -0.313,5.61776 -3.6796,12.13983 -7.8906,18.16309 -6.2946,9.00079 -10.961,16.65626 -10.961,16.65626 z"
         style="display:inline;opacity:1;fill:#d40000"
         inkscape:connector-curvature="0" />
      <path
         transform="translate(2552.9231,-853.90551)"
         id="path10192-3-6"
         d="m -52.766444,-30.188979 c 0,0 -4.6663,-7.65547 -10.9609,-16.65625 -4.211,-6.02326 -7.5776,-12.54533 -7.8906,-18.16309 -0.359,-6.41731 3.0392,-12.85538 9.1914,-13.16741 6.1485,-0.31185 8.6442,4.94803 9.6601,9.28461 1.016,-4.33658 3.5117,-9.59646 9.6602,-9.28461 6.1522,0.31203 9.5504,6.7501 9.1914,13.16741 -0.313,5.61776 -3.6796,12.13983 -7.8906,18.16309 -6.2946,9.00078 -10.961,16.65625 -10.961,16.65625 z"
         style="display:inline;opacity:1;fill:#d40000"
         inkscape:connector-curvature="0" />
      <path
         id="path10196-7-3"
         d="m 2551.923,-882.48911 c 0,0 -4.6662,7.65547 -10.9609,16.65627 -4.2109,6.02326 -7.5776,12.54533 -7.8905,18.16308 -0.359,6.41731 3.0391,12.85538 9.1913,13.16741 6.1486,0.31185 8.6443,-4.94803 9.6601,-9.28461 1.0161,4.33658 3.5117,9.59646 9.6603,9.28461 6.1522,-0.31203 9.5503,-6.7501 9.1913,-13.16741 -0.3129,-5.61775 -3.6795,-12.13982 -7.8905,-18.16308 -6.2946,-9.0008 -10.9611,-16.65627 -10.9611,-16.65627 z"
         style="display:inline;opacity:1;fill:#d40000"
         inkscape:connector-curvature="0" />
      <path
         transform="translate(2552.9231,-853.90551)"
         style="display:inline;opacity:1;fill:#d40000;stroke:none;stroke-opacity:1"
         d="m 50.766354,21.021681 c 0,0 -4.6663,7.65547 -10.9609,16.65626 -4.211,6.02326 -7.5776,12.54533 -7.8906,18.16309 -0.359,6.41731 3.0392,12.85538 9.1914,13.16741 6.1485,0.31185 8.6442,-4.94803 9.6601,-9.28461 1.016,4.33658 3.5117,9.59646 9.6602,9.28461 6.1522,-0.31203 9.5504,-6.7501 9.1914,-13.16741 -0.313,-5.61776 -3.6796,-12.13983 -7.8906,-18.16309 -6.2946,-9.00079 -10.961,-16.65626 -10.961,-16.65626 z"
         id="path10202-2-8"
         inkscape:connector-curvature="0" />
      <path
         transform="translate(2552.9231,-853.90551)"
         id="path10204-9-4"
         d="m -52.766444,21.021681 c 0,0 -4.6663,7.65547 -10.9609,16.65626 -4.211,6.02326 -7.5776,12.54533 -7.8906,18.16309 -0.359,6.41731 3.0392,12.85538 9.1914,13.16741 6.1485,0.31185 8.6442,-4.94803 9.6601,-9.28461 1.016,4.33658 3.5117,9.59646 9.6602,9.28461 6.1522,-0.31203 9.5504,-6.7501 9.1914,-13.16741 -0.313,-5.61776 -3.6796,-12.13983 -7.8906,-18.16309 -6.2946,-9.00079 -10.961,-16.65626 -10.961,-16.65626 z"
         style="display:inline;opacity:1;fill:#d40000;stroke:none;stroke-opacity:1"
         inkscape:connector-curvature="0" />
      <path
         d="m 2446.8051,-1026.8284 c 0.1568,-4.4301 1.7588,-6.0918 4.9126,-8.4097 -2.5161,-1.8149 -3.5768,-4.4903 -3.3608,-6.7675 0.5181,-5.5143 4.7763,-8.2708 9.4228,-8.153 4.6503,0.1231 8.6526,3.8094 8.965,7.8165 0.2713,3.4833 -0.7637,5.1647 -3.2348,6.9967 2.9327,2.4762 4.8059,4.1026 4.7365,8.4659 -0.069,4.3633 -3.7812,9.5555 -10.2508,9.7139 -6.4695,0.1584 -11.3513,-5.2328 -11.1905,-9.6628 l 0,0 z m 18.06,0.016 c 0.2764,-4.011 -3.2695,-6.7165 -7.2719,-6.7558 -3.8969,-0.042 -7.3824,3.2843 -7.3824,6.8854 0,3.867 4.5346,5.9687 7.4634,5.9779 3.5601,0.016 6.9504,-2.6544 7.1909,-6.1075 l 0,0 z m -1.2806,-14.3483 c 0.076,-3.3745 -3.0381,-5.7958 -6.2523,-5.6989 -2.858,0.088 -5.8807,2.2667 -5.8858,5.09 0,3.5344 3.4405,5.2996 6.3783,5.3677 2.6665,0.06 5.6994,-2.2065 5.7598,-4.7588 l 0,0 z m 0,0"
         id="path27-00-0-7-4"
         style="opacity:1;fill:#d40000;fill-opacity:1;stroke-width:1;stroke-miterlimit:4;stroke-dasharray:none"
         inkscape:connector-curvature="0" />
      <path
         d="m 2635.5996,-789.36035 c 0.1568,4.4301 1.7588,6.0918 4.9126,8.4097 -2.5161,1.8149 -3.5768,4.4902 -3.3608,6.7675 0.5181,5.5143 4.7763,8.2708 9.4228,8.1529 4.6503,-0.1231 8.6526,-3.8093 8.965,-7.8164 0.2713,-3.4833 -0.7637,-5.1647 -3.2348,-6.9967 2.9327,-2.4762 4.8059,-4.1026 4.7365,-8.4659 -0.069,-4.3633 -3.7812,-9.5555 -10.2508,-9.7139 -6.4695,-0.1585 -11.3513,5.2328 -11.1905,9.6628 l 0,0 z m 18.06,-0.016 c 0.2764,4.011 -3.2695,6.7165 -7.2719,6.7558 -3.8969,0.042 -7.3824,-3.2843 -7.3824,-6.8854 0,-3.867 4.5346,-5.9687 7.4634,-5.9779 3.5601,-0.016 6.9504,2.6544 7.1909,6.1075 l 0,0 z m -1.2806,14.3483 c 0.076,3.3745 -3.0381,5.7958 -6.2523,5.6989 -2.858,-0.088 -5.8807,-2.2667 -5.8858,-5.09 0,-3.5344 3.4405,-5.2996 6.3783,-5.3677 2.6665,-0.06 5.6994,2.2065 5.7598,4.7588 l 0,0 z m 0,0"
         id="path27-0-1-0-8-9"
         style="opacity:1;fill:#d40000;fill-opacity:1"
         inkscape:connector-curvature="0" />
    </g>
    <!--<text
       xml:space="preserve"
       style="font-style:normal;font-variant:normal;font-weight:normal;font-stretch:normal;font-size:40px;line-height:125%;font-family:Carlito;-inkscape-font-specification:'Carlito, Normal';text-align:center;letter-spacing:0px;word-spacing:0px;writing-mode:lr-tb;text-anchor:middle;fill:#000000;fill-opacity:1;stroke:none;stroke-width:1px;stroke-linecap:butt;stroke-linejoin:miter;stroke-opacity:1"
       x="2159.5825"
       y="-1733.0996"
       id="text5630-0"
       sodipodi:linespacing="125%"><tspan
         sodipodi:role="line"
         x="2159.5825"
         y="-1733.0996"
         id="tspan4923"
         style="font-style:normal;font-variant:normal;font-weight:normal;font-stretch:normal;font-size:45px;line-height:125%;font-family:Carlito;-inkscape-font-specification:'Carlito, Normal';text-align:center;writing-mode:lr-tb;text-anchor:middle">52 Vector Poker Standard Playing Card Faces Version 2.0</tspan><tspan
         sodipodi:role="line"
         x="2159.5825"
         y="-1676.8496"
         id="tspan5035"
         style="font-style:normal;font-variant:normal;font-weight:normal;font-stretch:normal;font-size:45px;line-height:125%;font-family:Carlito;-inkscape-font-specification:'Carlito, Normal';text-align:center;writing-mode:lr-tb;text-anchor:middle">(Color Set - Plus Two Jokers)</tspan><tspan
         sodipodi:role="line"
         x="2159.5825"
         y="-1620.5996"
         id="tspan4927"
         style="font-style:normal;font-variant:normal;font-weight:normal;font-stretch:normal;font-size:45px;line-height:125%;font-family:Carlito;-inkscape-font-specification:'Carlito, Normal';text-align:center;writing-mode:lr-tb;text-anchor:middle">Copyright 2015 - Chris Aguilar</tspan><tspan
         sodipodi:role="line"
         x="2159.5825"
         y="-1564.3496"
         id="tspan4931"
         style="font-style:normal;font-variant:normal;font-weight:normal;font-stretch:normal;font-size:45px;line-height:125%;font-family:Carlito;-inkscape-font-specification:'Carlito, Normal';text-align:center;writing-mode:lr-tb;text-anchor:middle">http://sourceforge.net/projects/vector-cards/</tspan><tspan
         sodipodi:role="line"
         x="2159.5825"
         y="-1508.0996"
         id="tspan4929"
         style="font-style:normal;font-variant:normal;font-weight:normal;font-stretch:normal;font-size:45px;line-height:125%;font-family:Carlito;-inkscape-font-specification:'Carlito, Normal';text-align:center;writing-mode:lr-tb;text-anchor:middle" /><tspan
         sodipodi:role="line"
         x="2159.5825"
         y="-1451.8496"
         id="tspan5638-6"
         style="font-style:normal;font-variant:normal;font-weight:normal;font-stretch:normal;font-size:45px;line-height:125%;font-family:Carlito;-inkscape-font-specification:'Carlito, Normal';text-align:center;writing-mode:lr-tb;text-anchor:middle">Licensed under LGPL 3.0</tspan><tspan
         sodipodi:role="line"
         x="2159.5825"
         y="-1395.5996"
         id="tspan4919"
         style="font-style:normal;font-variant:normal;font-weight:normal;font-stretch:normal;font-size:45px;line-height:125%;font-family:Carlito;-inkscape-font-specification:'Carlito, Normal';text-align:center;writing-mode:lr-tb;text-anchor:middle">http://www.gnu.org/licenses/lgpl.html</tspan><tspan
         sodipodi:role="line"
         x="2159.5825"
         y="-1339.3496"
         id="tspan5031"
         style="font-style:normal;font-variant:normal;font-weight:normal;font-stretch:normal;font-size:45px;line-height:125%;font-family:Carlito;-inkscape-font-specification:'Carlito, Normal';text-align:center;writing-mode:lr-tb;text-anchor:middle" /><tspan
         sodipodi:role="line"
         x="2159.5825"
         y="-1283.0996"
         id="tspan5033"
         style="font-style:normal;font-variant:normal;font-weight:normal;font-stretch:normal;font-size:45px;line-height:125%;font-family:Carlito;-inkscape-font-specification:'Carlito, Normal';text-align:center;writing-mode:lr-tb;text-anchor:middle">Each Card Measures (63mm x 88mm)</tspan><tspan
         sodipodi:role="line"
         x="2159.5825"
         y="-1226.8496"
         id="tspan5634-6" /></text>-->
  </g>
</svg>
