<?xml version="1.0" encoding="utf-8"?>
<!-- Generator: Adobe Illustrator 16.0.0, SVG Export Plug-In . SVG Version: 6.00 Build 0)  -->
<!DOCTYPE svg PUBLIC "-//W3C//DTD SVG 1.1//EN" "http://www.w3.org/Graphics/SVG/1.1/DTD/svg11.dtd">
<svg version="1.1" id="Layer_1" xmlns="http://www.w3.org/2000/svg" xmlns:xlink="http://www.w3.org/1999/xlink" x="0px" y="0px"
	 width="47.232px" height="44.838px" viewBox="0 0 47.232 44.838" enable-background="new 0 0 47.232 44.838" xml:space="preserve">
<g>
	<path d="M45.621,22.295c1.694,10.912-8.562,21.483-22.219,21.44C10.925,43.696,1.092,35.181,1.066,24.308
		C1.03,9.606,9.347,0.955,23.385,0.848C35.478,0.757,47.009,9.706,45.621,22.295z M22.98,37.024
		c1.609-0.125,2.944-0.158,4.258-0.342c8.672-1.207,15.958-8.092,16.531-15.58c0.604-7.896-4.995-15.099-14.116-17.443
		c-3.138-0.807-6.608-0.941-9.848-0.607C10.857,3.978,3.482,11.131,3.014,18.84c-0.485,7.979,5.67,15.324,14.808,17.526
		C19.583,36.791,21.436,36.837,22.98,37.024z"/>
	<path fill="#C32126" d="M22.98,37.024c-1.544-0.188-3.396-0.234-5.159-0.658C8.684,34.164,2.529,26.819,3.014,18.84
		c0.468-7.709,7.844-14.862,16.791-15.786c3.239-0.334,6.71-0.2,9.848,0.607c9.121,2.345,14.722,9.547,14.116,17.443
		c-0.572,7.488-7.858,14.374-16.531,15.581C25.924,36.867,24.589,36.899,22.98,37.024z"/>
</g>
</svg>
