<?xml version="1.0" encoding="utf-8"?>
<!-- Generator: Adobe Illustrator 16.0.0, SVG Export Plug-In . SVG Version: 6.00 Build 0)  -->
<!DOCTYPE svg PUBLIC "-//W3C//DTD SVG 1.1//EN" "http://www.w3.org/Graphics/SVG/1.1/DTD/svg11.dtd">
<svg version="1.1" id="Layer_1" xmlns="http://www.w3.org/2000/svg" xmlns:xlink="http://www.w3.org/1999/xlink" x="0px" y="0px"
	 width="47.233px" height="54.835px" viewBox="0 0 47.233 54.835" enable-background="new 0 0 47.233 54.835" xml:space="preserve">
<g>
	<path fill-rule="evenodd" clip-rule="evenodd" d="M45.621,32.292c1.695,10.912-8.562,21.484-22.218,21.441
		c-12.478-0.04-22.311-8.555-22.337-19.429C1.03,19.603,9.347,10.952,23.385,10.845C35.478,10.754,47.009,19.703,45.621,32.292z
		 M22.98,47.022c1.609-0.125,2.944-0.159,4.258-0.342c8.671-1.207,15.958-8.092,16.531-15.58
		c0.604-7.896-4.995-15.099-14.116-17.443c-3.138-0.807-6.609-0.941-9.848-0.607c-8.947,0.924-16.323,8.077-16.791,15.786
		c-0.485,7.979,5.67,15.324,14.808,17.526C19.583,46.788,21.436,46.834,22.98,47.022z"/>
	<path fill-rule="evenodd" clip-rule="evenodd" fill="#C22026" d="M22.98,47.022c-1.544-0.188-3.397-0.235-5.159-0.659
		C8.684,44.161,2.529,36.816,3.014,28.837c0.468-7.709,7.844-14.862,16.791-15.786c3.239-0.334,6.71-0.2,9.848,0.607
		c9.121,2.345,14.721,9.547,14.116,17.443c-0.572,7.488-7.859,14.373-16.531,15.58C25.924,46.864,24.589,46.897,22.98,47.022z"/>
</g>
<g>
	<path fill-rule="evenodd" clip-rule="evenodd" d="M45.621,23.448c1.695,10.912-8.562,21.484-22.218,21.441
		C10.925,44.849,1.092,36.334,1.066,25.46C1.03,10.758,9.347,2.107,23.385,2C35.478,1.909,47.009,10.858,45.621,23.448z
		 M22.98,38.178c1.609-0.125,2.944-0.159,4.258-0.342c8.671-1.207,15.958-8.092,16.531-15.58
		c0.604-7.896-4.995-15.099-14.116-17.443c-3.138-0.807-6.609-0.941-9.848-0.607C10.857,5.13,3.482,12.283,3.014,19.992
		c-0.485,7.979,5.67,15.324,14.808,17.526C19.583,37.943,21.436,37.989,22.98,38.178z"/>
	<path fill-rule="evenodd" clip-rule="evenodd" fill="#C22026" d="M22.98,38.178c-1.544-0.188-3.397-0.235-5.159-0.659
		C8.684,35.316,2.529,27.972,3.014,19.992C3.482,12.283,10.857,5.13,19.805,4.206c3.239-0.334,6.71-0.2,9.848,0.607
		c9.121,2.345,14.721,9.547,14.116,17.443c-0.572,7.488-7.859,14.373-16.531,15.58C25.924,38.019,24.589,38.053,22.98,38.178z"/>
</g>
</svg>
